<?xml version="1.0" encoding="UTF-8" standalone="no"?>
<svg
   xmlns:dc="http://purl.org/dc/elements/1.1/"
   xmlns:cc="http://creativecommons.org/ns#"
   xmlns:rdf="http://www.w3.org/1999/02/22-rdf-syntax-ns#"
   xmlns:svg="http://www.w3.org/2000/svg"
   xmlns="http://www.w3.org/2000/svg"
   xmlns:sodipodi="http://sodipodi.sourceforge.net/DTD/sodipodi-0.dtd"
   xmlns:inkscape="http://www.inkscape.org/namespaces/inkscape"
   viewBox="0 0 57.999998 57.999998"
   class="${ego(     'medal'   )}"
   version="1.1"
   id="svg124"
   sodipodi:docname="icon.svg"
   width="58"
   height="58"
   inkscape:version="1.0.1 (3bc2e813f5, 2020-09-07)">
  <metadata
     id="metadata130">
    <rdf:RDF>
      <cc:Work
         rdf:about="">
        <dc:format>image/svg+xml</dc:format>
        <dc:type
           rdf:resource="http://purl.org/dc/dcmitype/StillImage" />
        <dc:title></dc:title>
      </cc:Work>
    </rdf:RDF>
  </metadata>
  <defs
     id="defs128" />
  <sodipodi:namedview
     pagecolor="#ffffff"
     bordercolor="#666666"
     borderopacity="1"
     objecttolerance="10"
     gridtolerance="10"
     guidetolerance="10"
     inkscape:pageopacity="0"
     inkscape:pageshadow="2"
     inkscape:window-width="1920"
     inkscape:window-height="1029"
     id="namedview126"
     showgrid="false"
     inkscape:zoom="5.1337025"
     inkscape:cx="-26.011441"
     inkscape:cy="-17.732699"
     inkscape:window-x="130"
     inkscape:window-y="1491"
     inkscape:window-maximized="0"
     inkscape:current-layer="g122"
     inkscape:document-rotation="0" />
  <g
     transform="translate(-74.297997,-126.955)"
     id="g122">
    <g
       id="g25"
       transform="translate(5.6679997)">
      <path
         id="path112"
         d="m 20.050781,113.125 -2.623047,11.87891 16.216797,9.01171 4.611328,-20.89062 z"
         style="fill:#aa0000;fill-opacity:1"
         transform="translate(72.273,13.83)" />
      <path
         id="path114"
         d="m 14.085938,113.125 2.701171,20.58789 17.007813,-5.79883 -1.941406,-14.78906 z"
         style="fill:#ff0000;fill-opacity:1"
         transform="translate(72.273,13.83)" />
      <circle
         cx="97.629997"
         cy="158.41"
         r="23.332001"
         fill="#ffd42a"
         id="circle116" />
      <circle
         cx="97.629997"
         cy="158.41"
         r="18.165001"
         fill="none"
         stroke="#d4aa00"
         stroke-width="3.893"
         id="circle118" />
      <path
         d="m 103.14,147.36 a 6.673,6.673 0 0 0 -5.51,2.876 6.75,6.75 0 0 0 -5.509,-2.876 6.757,6.757 0 0 0 -6.75,6.75 c 0,9.203 9.566,17.77 12.26,17.77 2.694,0 12.26,-8.597 12.26,-17.77 a 6.757,6.757 0 0 0 -6.75,-6.75 z"
         fill="#e0245e"
         id="path120" />
    </g>
  </g>
</svg>
